<?xml version="1.0" standalone="no"?>
<!DOCTYPE svg PUBLIC "-//W3C//DTD SVG 20010904//EN"
 "http://www.w3.org/TR/2001/REC-SVG-20010904/DTD/svg10.dtd">
<svg version="1.0" xmlns="http://www.w3.org/2000/svg"
 width="49.000000pt" height="84.000000pt" viewBox="0 0 49.000000 84.000000"
 preserveAspectRatio="xMidYMid meet">
<metadata>
Created by potrace 1.10, written by Peter Selinger 2001-2011
</metadata>
<g transform="translate(0.000000,84.000000) scale(0.100000,-0.100000)"
fill="#000000" stroke="none">
<path d="M102 807 c-26 -28 -28 -50 -6 -68 9 -8 25 -34 36 -58 18 -43 18 -45
1 -55 -42 -23 -82 -77 -88 -120 -10 -61 9 -109 56 -149 28 -24 39 -42 39 -62
0 -44 63 -100 130 -115 l55 -12 47 -87 c46 -83 47 -85 48 -49 0 20 -9 58 -20
84 -22 49 -20 74 3 74 17 0 67 45 67 60 0 16 -16 12 -56 -15 -20 -14 -40 -25
-43 -25 -4 0 -16 26 -28 58 l-21 59 34 27 c35 27 44 46 22 46 -6 0 -19 -6 -27
-14 -30 -27 -42 -22 -60 26 -10 26 -16 49 -13 52 9 10 62 7 83 -5 11 -5 24
-22 29 -35 12 -32 53 -30 58 2 5 37 -33 58 -113 62 l-72 4 -26 64 -25 64 32 0
c35 0 66 -25 66 -53 0 -11 8 -17 24 -17 30 0 40 14 32 44 -7 28 -45 46 -113
53 l-52 6 -31 88 c-18 49 -36 89 -39 89 -4 0 -17 -10 -29 -23z m83 -247 c16
-37 17 -42 2 -58 -11 -12 -13 -22 -6 -34 7 -13 5 -23 -11 -40 -11 -12 -20 -28
-20 -36 0 -27 -39 18 -50 58 -11 39 -1 86 25 126 22 34 39 30 60 -16z m37
-192 c7 -14 4 -18 -12 -18 -14 0 -20 7 -20 23 0 27 13 44 19 25 2 -7 8 -21 13
-30z m53 -106 c14 -25 23 -47 21 -49 -8 -8 -64 27 -85 53 -30 38 -27 51 9 46
23 -3 35 -15 55 -50z"/>
</g>
</svg>
